<svg width="2168" height="1174" xmlns="http://www.w3.org/2000/svg" xmlns:xlink="http://www.w3.org/1999/xlink" xml:space="preserve" overflow="hidden"><g transform="translate(-394 -531)"><g><path d="M397.5 722.17C397.5 620.18 480.179 537.5 582.17 537.5L1320.83 537.5C1422.82 537.5 1505.5 620.18 1505.5 722.17L1505.5 1517.83C1505.5 1619.82 1422.82 1702.5 1320.83 1702.5L582.17 1702.5C480.179 1702.5 397.5 1619.82 397.5 1517.83Z" stroke="#44546A" stroke-width="4.58333" stroke-linecap="butt" stroke-linejoin="miter" stroke-miterlimit="8" stroke-opacity="1" fill="#262626" fill-rule="evenodd" fill-opacity="1"/><path d="M449.5 756.834C449.5 728.483 472.483 705.5 500.834 705.5L1538.17 705.5C1566.52 705.5 1589.5 728.483 1589.5 756.834L1589.5 962.166C1589.5 990.517 1566.52 1013.5 1538.17 1013.5L500.834 1013.5C472.483 1013.5 449.5 990.517 449.5 962.166Z" stroke="#D6DCE5" stroke-width="20.625" stroke-linecap="butt" stroke-linejoin="miter" stroke-miterlimit="8" stroke-opacity="1" fill="none" fill-rule="evenodd"/><path d="M449.5 1089.83C449.5 1061.48 472.483 1038.5 500.834 1038.5L1538.17 1038.5C1566.52 1038.5 1589.5 1061.48 1589.5 1089.83L1589.5 1295.17C1589.5 1323.52 1566.52 1346.5 1538.17 1346.5L500.834 1346.5C472.483 1346.5 449.5 1323.52 449.5 1295.17Z" stroke="#ADB9CA" stroke-width="20.625" stroke-linecap="butt" stroke-linejoin="miter" stroke-miterlimit="8" stroke-opacity="1" fill="none" fill-rule="evenodd"/><path d="M449.5 1420.67C449.5 1392.96 471.961 1370.5 499.668 1370.5L1539.33 1370.5C1567.04 1370.5 1589.5 1392.96 1589.5 1420.67L1589.5 1621.33C1589.5 1649.04 1567.04 1671.5 1539.33 1671.5L499.668 1671.5C471.961 1671.5 449.5 1649.04 449.5 1621.33Z" stroke="#8497B0" stroke-width="20.625" stroke-linecap="butt" stroke-linejoin="miter" stroke-miterlimit="8" stroke-opacity="1" fill="none" fill-rule="evenodd"/><path d="M449.5 588.833C449.5 578.708 457.708 570.5 467.833 570.5L1571.17 570.5C1581.29 570.5 1589.5 578.708 1589.5 588.833L1589.5 662.167C1589.5 672.292 1581.29 680.5 1571.17 680.5L467.833 680.5C457.708 680.5 449.5 672.292 449.5 662.167Z" stroke="#AFABAB" stroke-width="20.625" stroke-linecap="butt" stroke-linejoin="miter" stroke-miterlimit="8" stroke-opacity="1" fill="none" fill-rule="evenodd"/><text fill="#0087FF" fill-opacity="1" font-family="Menlo,Menlo_MSFontService,sans-serif" font-style="normal" font-variant="normal" font-weight="400" font-stretch="normal" font-size="46" text-anchor="start" direction="ltr" writing-mode="lr-tb" unicode-bidi="normal" text-decoration="none" transform="matrix(1 0 0 1 482.45 603)">.</text><text fill="#C5C8C6" fill-opacity="1" font-family="Menlo,Menlo_MSFontService,sans-serif" font-style="normal" font-variant="normal" font-weight="400" font-stretch="normal" font-size="46" text-anchor="start" direction="ltr" writing-mode="lr-tb" unicode-bidi="normal" text-decoration="none" transform="matrix(1 0 0 1 482.45 658)">├── GALA_main.py </text><text fill="#C5C8C6" fill-opacity="1" font-family="Menlo,Menlo_MSFontService,sans-serif" font-style="normal" font-variant="normal" font-weight="400" font-stretch="normal" font-size="46" text-anchor="start" direction="ltr" writing-mode="lr-tb" unicode-bidi="normal" text-decoration="none" transform="matrix(1 0 0 1 482.45 713)">│</text><text fill="#C5C8C6" fill-opacity="1" font-family="Menlo,Menlo_MSFontService,sans-serif" font-style="normal" font-variant="normal" font-weight="400" font-stretch="normal" font-size="46" text-anchor="start" direction="ltr" writing-mode="lr-tb" unicode-bidi="normal" text-decoration="none" transform="matrix(1 0 0 1 482.45 768)">├── </text><text fill="#0087FF" fill-opacity="1" font-family="Menlo,Menlo_MSFontService,sans-serif" font-style="normal" font-variant="normal" font-weight="400" font-stretch="normal" font-size="46" text-anchor="start" direction="ltr" writing-mode="lr-tb" unicode-bidi="normal" text-decoration="none" transform="matrix(1 0 0 1 592.45 768)">MOF1</text><text fill="#C5C8C6" fill-opacity="1" font-family="Menlo,Menlo_MSFontService,sans-serif" font-style="normal" font-variant="normal" font-weight="400" font-stretch="normal" font-size="46" text-anchor="start" direction="ltr" writing-mode="lr-tb" unicode-bidi="normal" text-decoration="none" transform="matrix(1 0 0 1 482.45 823)">│</text><text fill="#C5C8C6" fill-opacity="1" font-family="Menlo,Menlo_MSFontService,sans-serif" font-style="normal" font-variant="normal" font-weight="400" font-stretch="normal" font-size="46" text-anchor="start" direction="ltr" writing-mode="lr-tb" unicode-bidi="normal" text-decoration="none" transform="matrix(1 0 0 1 592.45 823)">├── FIELD </text><text fill="#C5C8C6" fill-opacity="1" font-family="Menlo,Menlo_MSFontService,sans-serif" font-style="normal" font-variant="normal" font-weight="400" font-stretch="normal" font-size="46" text-anchor="start" direction="ltr" writing-mode="lr-tb" unicode-bidi="normal" text-decoration="none" transform="matrix(1 0 0 1 482.45 878)">│</text><text fill="#C5C8C6" fill-opacity="1" font-family="Menlo,Menlo_MSFontService,sans-serif" font-style="normal" font-variant="normal" font-weight="400" font-stretch="normal" font-size="46" text-anchor="start" direction="ltr" writing-mode="lr-tb" unicode-bidi="normal" text-decoration="none" transform="matrix(1 0 0 1 592.45 878)">├── GALA.inp </text><text fill="#C5C8C6" fill-opacity="1" font-family="Menlo,Menlo_MSFontService,sans-serif" font-style="normal" font-variant="normal" font-weight="400" font-stretch="normal" font-size="46" text-anchor="start" direction="ltr" writing-mode="lr-tb" unicode-bidi="normal" text-decoration="none" transform="matrix(1 0 0 1 482.45 933)">│</text><text fill="#C5C8C6" fill-opacity="1" font-family="Menlo,Menlo_MSFontService,sans-serif" font-style="normal" font-variant="normal" font-weight="400" font-stretch="normal" font-size="46" text-anchor="start" direction="ltr" writing-mode="lr-tb" unicode-bidi="normal" text-decoration="none" transform="matrix(1 0 0 1 592.45 933)">├── Prob_Guest_X_Site_Y.cube </text><text fill="#C5C8C6" fill-opacity="1" font-family="Menlo,Menlo_MSFontService,sans-serif" font-style="normal" font-variant="normal" font-weight="400" font-stretch="normal" font-size="46" text-anchor="start" direction="ltr" writing-mode="lr-tb" unicode-bidi="normal" text-decoration="none" transform="matrix(1 0 0 1 482.45 988)">│</text><text fill="#C5C8C6" fill-opacity="1" font-family="Menlo,Menlo_MSFontService,sans-serif" font-style="normal" font-variant="normal" font-weight="400" font-stretch="normal" font-size="46" text-anchor="start" direction="ltr" writing-mode="lr-tb" unicode-bidi="normal" text-decoration="none" transform="matrix(1 0 0 1 592.45 988)">└── Prob_Guest_X_Site_Z.cube </text><text fill="#C5C8C6" fill-opacity="1" font-family="Menlo,Menlo_MSFontService,sans-serif" font-style="normal" font-variant="normal" font-weight="400" font-stretch="normal" font-size="46" text-anchor="start" direction="ltr" writing-mode="lr-tb" unicode-bidi="normal" text-decoration="none" transform="matrix(1 0 0 1 482.45 1043)">│</text><text fill="#C5C8C6" fill-opacity="1" font-family="Menlo,Menlo_MSFontService,sans-serif" font-style="normal" font-variant="normal" font-weight="400" font-stretch="normal" font-size="46" text-anchor="start" direction="ltr" writing-mode="lr-tb" unicode-bidi="normal" text-decoration="none" transform="matrix(1 0 0 1 482.45 1098)">├── </text><text fill="#0087FF" fill-opacity="1" font-family="Menlo,Menlo_MSFontService,sans-serif" font-style="normal" font-variant="normal" font-weight="400" font-stretch="normal" font-size="46" text-anchor="start" direction="ltr" writing-mode="lr-tb" unicode-bidi="normal" text-decoration="none" transform="matrix(1 0 0 1 592.45 1098)">MOF2</text><text fill="#C5C8C6" fill-opacity="1" font-family="Menlo,Menlo_MSFontService,sans-serif" font-style="normal" font-variant="normal" font-weight="400" font-stretch="normal" font-size="46" text-anchor="start" direction="ltr" writing-mode="lr-tb" unicode-bidi="normal" text-decoration="none" transform="matrix(1 0 0 1 482.45 1153)">│</text><text fill="#C5C8C6" fill-opacity="1" font-family="Menlo,Menlo_MSFontService,sans-serif" font-style="normal" font-variant="normal" font-weight="400" font-stretch="normal" font-size="46" text-anchor="start" direction="ltr" writing-mode="lr-tb" unicode-bidi="normal" text-decoration="none" transform="matrix(1 0 0 1 592.45 1153)">├── FIELD </text><text fill="#C5C8C6" fill-opacity="1" font-family="Menlo,Menlo_MSFontService,sans-serif" font-style="normal" font-variant="normal" font-weight="400" font-stretch="normal" font-size="46" text-anchor="start" direction="ltr" writing-mode="lr-tb" unicode-bidi="normal" text-decoration="none" transform="matrix(1 0 0 1 482.45 1208)">│</text><text fill="#C5C8C6" fill-opacity="1" font-family="Menlo,Menlo_MSFontService,sans-serif" font-style="normal" font-variant="normal" font-weight="400" font-stretch="normal" font-size="46" text-anchor="start" direction="ltr" writing-mode="lr-tb" unicode-bidi="normal" text-decoration="none" transform="matrix(1 0 0 1 592.45 1208)">├── GALA.inp </text><text fill="#C5C8C6" fill-opacity="1" font-family="Menlo,Menlo_MSFontService,sans-serif" font-style="normal" font-variant="normal" font-weight="400" font-stretch="normal" font-size="46" text-anchor="start" direction="ltr" writing-mode="lr-tb" unicode-bidi="normal" text-decoration="none" transform="matrix(1 0 0 1 482.45 1263)">│</text><text fill="#C5C8C6" fill-opacity="1" font-family="Menlo,Menlo_MSFontService,sans-serif" font-style="normal" font-variant="normal" font-weight="400" font-stretch="normal" font-size="46" text-anchor="start" direction="ltr" writing-mode="lr-tb" unicode-bidi="normal" text-decoration="none" transform="matrix(1 0 0 1 592.45 1263)">├── Prob_Guest_X_Site_Y.cube </text><text fill="#C5C8C6" fill-opacity="1" font-family="Menlo,Menlo_MSFontService,sans-serif" font-style="normal" font-variant="normal" font-weight="400" font-stretch="normal" font-size="46" text-anchor="start" direction="ltr" writing-mode="lr-tb" unicode-bidi="normal" text-decoration="none" transform="matrix(1 0 0 1 482.45 1318)">│</text><text fill="#C5C8C6" fill-opacity="1" font-family="Menlo,Menlo_MSFontService,sans-serif" font-style="normal" font-variant="normal" font-weight="400" font-stretch="normal" font-size="46" text-anchor="start" direction="ltr" writing-mode="lr-tb" unicode-bidi="normal" text-decoration="none" transform="matrix(1 0 0 1 592.45 1318)">└── Prob_Guest_X_Site_Z.cube </text><text fill="#C5C8C6" fill-opacity="1" font-family="Menlo,Menlo_MSFontService,sans-serif" font-style="normal" font-variant="normal" font-weight="400" font-stretch="normal" font-size="46" text-anchor="start" direction="ltr" writing-mode="lr-tb" unicode-bidi="normal" text-decoration="none" transform="matrix(1 0 0 1 482.45 1373)">│</text><text fill="#C5C8C6" fill-opacity="1" font-family="Menlo,Menlo_MSFontService,sans-serif" font-style="normal" font-variant="normal" font-weight="400" font-stretch="normal" font-size="46" text-anchor="start" direction="ltr" writing-mode="lr-tb" unicode-bidi="normal" text-decoration="none" transform="matrix(1 0 0 1 482.45 1428)">└── </text><text fill="#0087FF" fill-opacity="1" font-family="Menlo,Menlo_MSFontService,sans-serif" font-style="normal" font-variant="normal" font-weight="400" font-stretch="normal" font-size="46" text-anchor="start" direction="ltr" writing-mode="lr-tb" unicode-bidi="normal" text-decoration="none" transform="matrix(1 0 0 1 592.45 1428)">MOF3</text><text fill="#C5C8C6" fill-opacity="1" font-family="Menlo,Menlo_MSFontService,sans-serif" font-style="normal" font-variant="normal" font-weight="400" font-stretch="normal" font-size="46" text-anchor="start" direction="ltr" writing-mode="lr-tb" unicode-bidi="normal" text-decoration="none" transform="matrix(1 0 0 1 592.45 1483)">├── FIELD </text><text fill="#C5C8C6" fill-opacity="1" font-family="Menlo,Menlo_MSFontService,sans-serif" font-style="normal" font-variant="normal" font-weight="400" font-stretch="normal" font-size="46" text-anchor="start" direction="ltr" writing-mode="lr-tb" unicode-bidi="normal" text-decoration="none" transform="matrix(1 0 0 1 592.45 1538)">├── GALA.inp </text><text fill="#C5C8C6" fill-opacity="1" font-family="Menlo,Menlo_MSFontService,sans-serif" font-style="normal" font-variant="normal" font-weight="400" font-stretch="normal" font-size="46" text-anchor="start" direction="ltr" writing-mode="lr-tb" unicode-bidi="normal" text-decoration="none" transform="matrix(1 0 0 1 592.45 1593)">├── Prob_Guest_X_Site_Y.cube </text><text fill="#C5C8C6" fill-opacity="1" font-family="Menlo,Menlo_MSFontService,sans-serif" font-style="normal" font-variant="normal" font-weight="400" font-stretch="normal" font-size="46" text-anchor="start" direction="ltr" writing-mode="lr-tb" unicode-bidi="normal" text-decoration="none" transform="matrix(1 0 0 1 592.45 1648)">└── Prob_Guest_X_Site_Z.cube </text><text fill="#000000" fill-opacity="1" font-family="Calibri,Calibri_MSFontService,sans-serif" font-style="normal" font-variant="normal" font-weight="400" font-stretch="normal" font-size="83" text-anchor="start" direction="ltr" writing-mode="lr-tb" unicode-bidi="normal" text-decoration="none" transform="matrix(1 0 0 1 1840.43 1115)">Using .</text><text fill="#000000" fill-opacity="1" font-family="Calibri,Calibri_MSFontService,sans-serif" font-style="normal" font-variant="normal" font-weight="400" font-stretch="normal" font-size="83" text-anchor="start" direction="ltr" writing-mode="lr-tb" unicode-bidi="normal" text-decoration="none" transform="matrix(1 0 0 1 2066.16 1115)">sh</text><text fill="#000000" fill-opacity="1" font-family="Calibri,Calibri_MSFontService,sans-serif" font-style="normal" font-variant="normal" font-weight="400" font-stretch="normal" font-size="83" text-anchor="start" direction="ltr" writing-mode="lr-tb" unicode-bidi="normal" text-decoration="none" transform="matrix(1 0 0 1 2160.69 1115)">code </text><text fill="#000000" fill-opacity="1" font-family="Calibri,Calibri_MSFontService,sans-serif" font-style="normal" font-variant="normal" font-weight="400" font-stretch="normal" font-size="83" text-anchor="start" direction="ltr" writing-mode="lr-tb" unicode-bidi="normal" text-decoration="none" transform="matrix(1 0 0 1 1840.43 1214)">Run ../.</text><text fill="#000000" fill-opacity="1" font-family="Calibri,Calibri_MSFontService,sans-serif" font-style="normal" font-variant="normal" font-weight="400" font-stretch="normal" font-size="83" text-anchor="start" direction="ltr" writing-mode="lr-tb" unicode-bidi="normal" text-decoration="none" transform="matrix(1 0 0 1 2085.06 1214)">py</text><text fill="#000000" fill-opacity="1" font-family="Calibri,Calibri_MSFontService,sans-serif" font-style="normal" font-variant="normal" font-weight="400" font-stretch="normal" font-size="83" text-anchor="start" direction="ltr" writing-mode="lr-tb" unicode-bidi="normal" text-decoration="none" transform="matrix(1 0 0 1 2184.34 1214)">in each </text><text fill="#000000" fill-opacity="1" font-family="Calibri,Calibri_MSFontService,sans-serif" font-style="normal" font-variant="normal" font-weight="400" font-stretch="normal" font-size="83" text-anchor="start" direction="ltr" writing-mode="lr-tb" unicode-bidi="normal" text-decoration="none" transform="matrix(1 0 0 1 1840.43 1313)">directory</text><path d="M1589 705C1626 705 1656 709.999 1656 716.167L1656 1176.83C1656 1183 1686 1188 1723 1188 1686 1188 1656 1193 1656 1199.17L1656 1659.83C1656 1666 1626 1671 1589 1671" stroke="#44546A" stroke-width="13.75" stroke-linecap="butt" stroke-linejoin="miter" stroke-miterlimit="8" stroke-opacity="1" fill="none" fill-rule="evenodd"/></g></g></svg>