<svg width="1984" height="1077" xmlns="http://www.w3.org/2000/svg" xmlns:xlink="http://www.w3.org/1999/xlink" xml:space="preserve" overflow="hidden"><g transform="translate(-394 -527)"><g><path d="M397.5 710.503C397.5 612.195 477.195 532.5 575.503 532.5L1327.5 532.5C1425.81 532.5 1505.5 612.195 1505.5 710.503L1505.5 1422.5C1505.5 1520.81 1425.81 1600.5 1327.5 1600.5L575.503 1600.5C477.195 1600.5 397.5 1520.81 397.5 1422.5Z" stroke="#44546A" stroke-width="4.58333" stroke-linecap="butt" stroke-linejoin="miter" stroke-miterlimit="8" stroke-opacity="1" fill="#262626" fill-rule="evenodd" fill-opacity="1"/><text fill="#0087FF" fill-opacity="1" font-family="Menlo,Menlo_MSFontService,sans-serif" font-style="normal" font-variant="normal" font-weight="400" font-stretch="normal" font-size="46" text-anchor="start" direction="ltr" writing-mode="lr-tb" unicode-bidi="normal" text-decoration="none" transform="matrix(1 0 0 1 500.5 598)">.</text><text fill="#C5C8C6" fill-opacity="1" font-family="Menlo,Menlo_MSFontService,sans-serif" font-style="normal" font-variant="normal" font-weight="400" font-stretch="normal" font-size="46" text-anchor="start" direction="ltr" writing-mode="lr-tb" unicode-bidi="normal" text-decoration="none" transform="matrix(1 0 0 1 500.5 653)">├── GALA.inp </text><text fill="#C5C8C6" fill-opacity="1" font-family="Menlo,Menlo_MSFontService,sans-serif" font-style="normal" font-variant="normal" font-weight="400" font-stretch="normal" font-size="46" text-anchor="start" direction="ltr" writing-mode="lr-tb" unicode-bidi="normal" text-decoration="none" transform="matrix(1 0 0 1 500.5 708)">├── GALA_main.py </text><text fill="#C5C8C6" fill-opacity="1" font-family="Menlo,Menlo_MSFontService,sans-serif" font-style="normal" font-variant="normal" font-weight="400" font-stretch="normal" font-size="46" text-anchor="start" direction="ltr" writing-mode="lr-tb" unicode-bidi="normal" text-decoration="none" transform="matrix(1 0 0 1 500.5 763)">│</text><text fill="#C5C8C6" fill-opacity="1" font-family="Menlo,Menlo_MSFontService,sans-serif" font-style="normal" font-variant="normal" font-weight="400" font-stretch="normal" font-size="46" text-anchor="start" direction="ltr" writing-mode="lr-tb" unicode-bidi="normal" text-decoration="none" transform="matrix(1 0 0 1 500.5 818)">├── </text><text fill="#0087FF" fill-opacity="1" font-family="Menlo,Menlo_MSFontService,sans-serif" font-style="normal" font-variant="normal" font-weight="400" font-stretch="normal" font-size="46" text-anchor="start" direction="ltr" writing-mode="lr-tb" unicode-bidi="normal" text-decoration="none" transform="matrix(1 0 0 1 610.5 818)">MOF1</text><text fill="#C5C8C6" fill-opacity="1" font-family="Menlo,Menlo_MSFontService,sans-serif" font-style="normal" font-variant="normal" font-weight="400" font-stretch="normal" font-size="46" text-anchor="start" direction="ltr" writing-mode="lr-tb" unicode-bidi="normal" text-decoration="none" transform="matrix(1 0 0 1 500.5 873)">│</text><text fill="#C5C8C6" fill-opacity="1" font-family="Menlo,Menlo_MSFontService,sans-serif" font-style="normal" font-variant="normal" font-weight="400" font-stretch="normal" font-size="46" text-anchor="start" direction="ltr" writing-mode="lr-tb" unicode-bidi="normal" text-decoration="none" transform="matrix(1 0 0 1 610.5 873)">├── FIELD </text><text fill="#C5C8C6" fill-opacity="1" font-family="Menlo,Menlo_MSFontService,sans-serif" font-style="normal" font-variant="normal" font-weight="400" font-stretch="normal" font-size="46" text-anchor="start" direction="ltr" writing-mode="lr-tb" unicode-bidi="normal" text-decoration="none" transform="matrix(1 0 0 1 500.5 928)">│</text><text fill="#C5C8C6" fill-opacity="1" font-family="Menlo,Menlo_MSFontService,sans-serif" font-style="normal" font-variant="normal" font-weight="400" font-stretch="normal" font-size="46" text-anchor="start" direction="ltr" writing-mode="lr-tb" unicode-bidi="normal" text-decoration="none" transform="matrix(1 0 0 1 610.5 928)">├── Prob_Guest_X_Site_Y.cube </text><text fill="#C5C8C6" fill-opacity="1" font-family="Menlo,Menlo_MSFontService,sans-serif" font-style="normal" font-variant="normal" font-weight="400" font-stretch="normal" font-size="46" text-anchor="start" direction="ltr" writing-mode="lr-tb" unicode-bidi="normal" text-decoration="none" transform="matrix(1 0 0 1 500.5 983)">│</text><text fill="#C5C8C6" fill-opacity="1" font-family="Menlo,Menlo_MSFontService,sans-serif" font-style="normal" font-variant="normal" font-weight="400" font-stretch="normal" font-size="46" text-anchor="start" direction="ltr" writing-mode="lr-tb" unicode-bidi="normal" text-decoration="none" transform="matrix(1 0 0 1 610.5 983)">└── Prob_Guest_X_Site_Z.cube </text><text fill="#C5C8C6" fill-opacity="1" font-family="Menlo,Menlo_MSFontService,sans-serif" font-style="normal" font-variant="normal" font-weight="400" font-stretch="normal" font-size="46" text-anchor="start" direction="ltr" writing-mode="lr-tb" unicode-bidi="normal" text-decoration="none" transform="matrix(1 0 0 1 500.5 1038)">│</text><text fill="#C5C8C6" fill-opacity="1" font-family="Menlo,Menlo_MSFontService,sans-serif" font-style="normal" font-variant="normal" font-weight="400" font-stretch="normal" font-size="46" text-anchor="start" direction="ltr" writing-mode="lr-tb" unicode-bidi="normal" text-decoration="none" transform="matrix(1 0 0 1 500.5 1093)">├── </text><text fill="#0087FF" fill-opacity="1" font-family="Menlo,Menlo_MSFontService,sans-serif" font-style="normal" font-variant="normal" font-weight="400" font-stretch="normal" font-size="46" text-anchor="start" direction="ltr" writing-mode="lr-tb" unicode-bidi="normal" text-decoration="none" transform="matrix(1 0 0 1 610.5 1093)">MOF2</text><text fill="#C5C8C6" fill-opacity="1" font-family="Menlo,Menlo_MSFontService,sans-serif" font-style="normal" font-variant="normal" font-weight="400" font-stretch="normal" font-size="46" text-anchor="start" direction="ltr" writing-mode="lr-tb" unicode-bidi="normal" text-decoration="none" transform="matrix(1 0 0 1 500.5 1148)">│</text><text fill="#C5C8C6" fill-opacity="1" font-family="Menlo,Menlo_MSFontService,sans-serif" font-style="normal" font-variant="normal" font-weight="400" font-stretch="normal" font-size="46" text-anchor="start" direction="ltr" writing-mode="lr-tb" unicode-bidi="normal" text-decoration="none" transform="matrix(1 0 0 1 610.5 1148)">├── FIELD </text><text fill="#C5C8C6" fill-opacity="1" font-family="Menlo,Menlo_MSFontService,sans-serif" font-style="normal" font-variant="normal" font-weight="400" font-stretch="normal" font-size="46" text-anchor="start" direction="ltr" writing-mode="lr-tb" unicode-bidi="normal" text-decoration="none" transform="matrix(1 0 0 1 500.5 1203)">│</text><text fill="#C5C8C6" fill-opacity="1" font-family="Menlo,Menlo_MSFontService,sans-serif" font-style="normal" font-variant="normal" font-weight="400" font-stretch="normal" font-size="46" text-anchor="start" direction="ltr" writing-mode="lr-tb" unicode-bidi="normal" text-decoration="none" transform="matrix(1 0 0 1 610.5 1203)">├── Prob_Guest_X_Site_Y.cube </text><text fill="#C5C8C6" fill-opacity="1" font-family="Menlo,Menlo_MSFontService,sans-serif" font-style="normal" font-variant="normal" font-weight="400" font-stretch="normal" font-size="46" text-anchor="start" direction="ltr" writing-mode="lr-tb" unicode-bidi="normal" text-decoration="none" transform="matrix(1 0 0 1 500.5 1258)">│</text><text fill="#C5C8C6" fill-opacity="1" font-family="Menlo,Menlo_MSFontService,sans-serif" font-style="normal" font-variant="normal" font-weight="400" font-stretch="normal" font-size="46" text-anchor="start" direction="ltr" writing-mode="lr-tb" unicode-bidi="normal" text-decoration="none" transform="matrix(1 0 0 1 610.5 1258)">└── Prob_Guest_X_Site_Z.cube </text><text fill="#C5C8C6" fill-opacity="1" font-family="Menlo,Menlo_MSFontService,sans-serif" font-style="normal" font-variant="normal" font-weight="400" font-stretch="normal" font-size="46" text-anchor="start" direction="ltr" writing-mode="lr-tb" unicode-bidi="normal" text-decoration="none" transform="matrix(1 0 0 1 500.5 1313)">│</text><text fill="#C5C8C6" fill-opacity="1" font-family="Menlo,Menlo_MSFontService,sans-serif" font-style="normal" font-variant="normal" font-weight="400" font-stretch="normal" font-size="46" text-anchor="start" direction="ltr" writing-mode="lr-tb" unicode-bidi="normal" text-decoration="none" transform="matrix(1 0 0 1 500.5 1368)">└── </text><text fill="#0087FF" fill-opacity="1" font-family="Menlo,Menlo_MSFontService,sans-serif" font-style="normal" font-variant="normal" font-weight="400" font-stretch="normal" font-size="46" text-anchor="start" direction="ltr" writing-mode="lr-tb" unicode-bidi="normal" text-decoration="none" transform="matrix(1 0 0 1 610.5 1368)">MOF3</text><text fill="#C5C8C6" fill-opacity="1" font-family="Menlo,Menlo_MSFontService,sans-serif" font-style="normal" font-variant="normal" font-weight="400" font-stretch="normal" font-size="46" text-anchor="start" direction="ltr" writing-mode="lr-tb" unicode-bidi="normal" text-decoration="none" transform="matrix(1 0 0 1 610.5 1423)">├── FIELD </text><text fill="#C5C8C6" fill-opacity="1" font-family="Menlo,Menlo_MSFontService,sans-serif" font-style="normal" font-variant="normal" font-weight="400" font-stretch="normal" font-size="46" text-anchor="start" direction="ltr" writing-mode="lr-tb" unicode-bidi="normal" text-decoration="none" transform="matrix(1 0 0 1 610.5 1478)">├── Prob_Guest_X_Site_Y.cube </text><text fill="#C5C8C6" fill-opacity="1" font-family="Menlo,Menlo_MSFontService,sans-serif" font-style="normal" font-variant="normal" font-weight="400" font-stretch="normal" font-size="46" text-anchor="start" direction="ltr" writing-mode="lr-tb" unicode-bidi="normal" text-decoration="none" transform="matrix(1 0 0 1 610.5 1533)">└── Prob_Guest_X_Site_Z.cube </text><path d="M467.5 796.501C467.5 773.304 486.304 754.5 509.501 754.5L1565.5 754.5C1588.7 754.5 1607.5 773.304 1607.5 796.501L1607.5 964.499C1607.5 987.696 1588.7 1006.5 1565.5 1006.5L509.501 1006.5C486.304 1006.5 467.5 987.696 467.5 964.499Z" stroke="#D6DCE5" stroke-width="20.625" stroke-linecap="butt" stroke-linejoin="miter" stroke-miterlimit="8" stroke-opacity="1" fill="none" fill-rule="evenodd"/><path d="M467.5 1073.5C467.5 1050.3 486.304 1031.5 509.501 1031.5L1565.5 1031.5C1588.7 1031.5 1607.5 1050.3 1607.5 1073.5L1607.5 1241.5C1607.5 1264.7 1588.7 1283.5 1565.5 1283.5L509.501 1283.5C486.304 1283.5 467.5 1264.7 467.5 1241.5Z" stroke="#ADB9CA" stroke-width="20.625" stroke-linecap="butt" stroke-linejoin="miter" stroke-miterlimit="8" stroke-opacity="1" fill="none" fill-rule="evenodd"/><path d="M467.5 1350.33C467.5 1327.23 486.23 1308.5 509.334 1308.5L1565.67 1308.5C1588.77 1308.5 1607.5 1327.23 1607.5 1350.33L1607.5 1517.67C1607.5 1540.77 1588.77 1559.5 1565.67 1559.5L509.334 1559.5C486.23 1559.5 467.5 1540.77 467.5 1517.67Z" stroke="#8497B0" stroke-width="20.625" stroke-linecap="butt" stroke-linejoin="miter" stroke-miterlimit="8" stroke-opacity="1" fill="none" fill-rule="evenodd"/><text fill="#D9D9D9" fill-opacity="1" font-family="Calibri,Calibri_MSFontService,sans-serif" font-style="normal" font-variant="normal" font-weight="700" font-stretch="normal" font-size="83" text-anchor="start" direction="ltr" writing-mode="lr-tb" unicode-bidi="normal" text-decoration="none" transform="matrix(1 0 0 1 1710.5 670)">Run .</text><text fill="#D9D9D9" fill-opacity="1" font-family="Calibri,Calibri_MSFontService,sans-serif" font-style="normal" font-variant="normal" font-weight="700" font-stretch="normal" font-size="83" text-anchor="start" direction="ltr" writing-mode="lr-tb" unicode-bidi="normal" text-decoration="none" transform="matrix(1 0 0 1 1885.81 670)">py</text><text fill="#D9D9D9" fill-opacity="1" font-family="Calibri,Calibri_MSFontService,sans-serif" font-style="normal" font-variant="normal" font-weight="700" font-stretch="normal" font-size="83" text-anchor="start" direction="ltr" writing-mode="lr-tb" unicode-bidi="normal" text-decoration="none" transform="matrix(1 0 0 1 1987.36 670)">code here</text><text fill="#D9D9D9" fill-opacity="1" font-family="Calibri,Calibri_MSFontService,sans-serif" font-style="normal" font-variant="normal" font-weight="700" font-stretch="normal" font-size="83" text-anchor="start" direction="ltr" writing-mode="lr-tb" unicode-bidi="normal" text-decoration="none" transform="matrix(1 0 0 1 1710.5 1184)">Path 2</text><text fill="#D9D9D9" fill-opacity="1" font-family="Calibri,Calibri_MSFontService,sans-serif" font-style="normal" font-variant="normal" font-weight="700" font-stretch="normal" font-size="83" text-anchor="start" direction="ltr" writing-mode="lr-tb" unicode-bidi="normal" text-decoration="none" transform="matrix(1 0 0 1 1710.5 1461)">Path 3</text><path d="M467.5 587C467.5 571.26 480.26 558.5 496 558.5L1579 558.5C1594.74 558.5 1607.5 571.26 1607.5 587L1607.5 701C1607.5 716.74 1594.74 729.5 1579 729.5L496 729.5C480.26 729.5 467.5 716.74 467.5 701Z" stroke="#AFABAB" stroke-width="20.625" stroke-linecap="butt" stroke-linejoin="miter" stroke-miterlimit="8" stroke-opacity="1" fill="none" fill-rule="evenodd"/><text fill="#D9D9D9" fill-opacity="1" font-family="Calibri,Calibri_MSFontService,sans-serif" font-style="normal" font-variant="normal" font-weight="700" font-stretch="normal" font-size="83" text-anchor="start" direction="ltr" writing-mode="lr-tb" unicode-bidi="normal" text-decoration="none" transform="matrix(1 0 0 1 1711.45 907)">Path 1</text></g></g></svg>